PathFileType	4	(X/Y/Z)	D:\TRACE\v60_Jaco2_6-2-23\BothDRS_Motion1_4-v60.trc
DataRate	CameraRate	NumFrames	NumMarkers	Units	OrigDataRate	OrigDataStartFrame	OrigNumFrames
100.00	100.00	      24	9	mm	100.00	3490	      6979
Frame#	Time	front left toe			Front right toe			aft left toe			aft right toe			Arm			FL body			FR body			AL Body			AR Body			
		X1	Y1	Z1	X2	Y2	Z2	X3	Y3	Z3	X4	Y4	Z4	X5	Y5	Z5	X6	Y6	Z6	X7	Y7	Z7	X8	Y8	Z8	X9	Y9	Z9	

3490	34.890	-133.08589	18.32667	-368.43939	246.27946	81.09026	-384.13287	-93.54915	72.75279	255.81078	275.88773	15.60144	237.20952	75.03748	1132.71777	-787.55243	-14.79169	587.14563	-513.70874	145.63695	582.64246	-521.07794	29.14865	559.56433	431.05374	184.53444	550.36884	425.64905	
3491	34.900	-132.61374	18.01216	-368.45407	249.36755	92.81798	-386.81638	-92.52191	84.70863	252.82059	276.74240	15.61502	237.09836	75.66153	1131.19702	-788.33295	-13.51524	586.84174	-513.98657	147.00246	582.21704	-521.66022	31.32386	558.66901	430.08395	185.76898	549.80737	425.41501	
3492	34.910	-131.55312	17.57556	-368.26053	251.99342	104.15063	-389.03348	-91.37981	96.12181	250.82698	277.54660	15.78425	236.93880	75.76322	1130.35217	-788.89227	-12.20386	586.15778	-514.11035	147.37195	581.24091	-521.38379	32.73839	558.82971	430.17148	187.74475	549.04694	424.46698	
3493	34.920	-130.41432	17.17053	-368.49405	254.11136	114.58417	-390.70795	-89.55352	107.38798	248.87666	278.32330	15.77813	236.71144	76.09071	1129.35547	-789.67102	-10.90235	585.44421	-514.52002	148.92097	581.05524	-523.13062	34.70522	558.57471	430.02594	189.66048	548.84375	424.15851	
3494	34.930	-129.72691	16.92411	-368.56192	256.39166	124.88837	-392.28586	-86.60901	117.70441	247.39771	279.08524	15.58789	236.70990	76.33401	1128.90247	-789.73914	-9.93262	584.87543	-515.02637	149.60068	579.68939	-522.60724	36.45742	558.67804	429.65768	191.67805	548.79504	423.61386	
3495	34.940	-129.42500	17.02215	-368.45364	258.38669	133.63060	-393.64185	-83.65540	126.67319	246.47563	279.88483	15.61049	236.68143	77.00343	1128.03564	-790.02863	-8.27265	583.55768	-514.99036	151.63136	579.11401	-523.57477	38.30388	559.07727	429.35205	193.16754	549.00958	423.09625	
3496	34.950	-129.00862	16.99064	-368.41428	260.72845	140.81224	-395.09891	-80.59399	134.05739	245.81445	281.07712	15.85391	236.63031	78.45812	1126.69800	-790.57178	-7.48612	582.73059	-515.25055	152.00668	577.98700	-524.20117	39.98560	559.35248	428.95462	195.07115	549.23468	422.76791	
3497	34.960	-128.00522	16.63307	-368.44003	263.94556	145.39090	-395.91464	-78.57079	139.97746	244.93700	281.37885	15.64115	236.55084	79.50393	1124.99377	-791.26727	-7.49524	582.20190	-515.59833	152.25067	577.08862	-523.82477	41.87926	559.70471	428.67114	197.33246	549.58698	422.31839	
3498	34.970	-127.01885	16.07895	-368.52963	266.36639	147.95705	-396.78214	-76.55907	142.59035	244.78172	282.27444	15.51133	236.47838	80.81967	1123.15088	-792.03619	-6.29341	581.46149	-515.53564	153.69281	576.53326	-524.58466	44.36982	560.04645	428.65039	199.51311	550.12134	421.81277	
3499	34.980	-126.31567	15.91148	-368.34644	268.99283	148.32144	-397.71347	-73.97943	143.39833	244.73836	283.19421	15.67628	236.36815	82.12456	1121.00940	-793.05585	-5.49399	581.00983	-515.94116	154.74228	576.14905	-524.88861	46.79245	560.48370	428.54074	201.53670	550.48352	421.24741	
3500	34.990	-125.98387	15.84294	-368.32358	270.95041	145.61838	-398.25732	-71.46429	141.97791	244.66747	283.58344	15.65865	235.99898	82.94101	1119.58521	-793.44556	-4.59759	580.57666	-516.27075	155.15060	575.60199	-525.21875	49.30812	561.36865	428.02707	203.88895	550.91003	420.88739	
3501	35.000	-125.57774	15.71138	-368.40701	272.93341	141.77367	-398.93564	-68.20944	139.42317	245.01477	284.41217	15.60519	235.85031	83.79810	1118.38037	-794.13818	-4.00128	580.29352	-516.57709	156.33778	575.16833	-525.86456	51.26708	561.17566	427.62485	206.16093	551.58948	421.00632	
3502	35.010	-124.86256	15.36789	-368.36557	273.77432	136.62616	-399.84494	-65.69479	136.02074	245.05066	285.33093	15.83173	235.89128	84.70404	1117.33765	-794.32642	-3.03357	579.88745	-517.05225	156.93300	574.33423	-526.26727	53.30378	562.09680	427.26947	208.31020	551.78613	419.69699	
3503	35.020	-123.96957	15.02228	-368.27313	275.30328	130.75188	-401.29468	-61.60510	130.14313	245.22028	285.93140	15.80970	235.82286	85.72800	1116.46326	-794.53217	-2.07873	579.64215	-517.45764	157.85379	574.01349	-526.92572	55.44769	562.56891	426.93484	211.09357	551.95276	419.59509	
3504	35.030	-123.62354	15.06851	-368.32504	276.99130	124.18393	-403.03036	-59.41420	125.28053	244.90527	286.46234	15.71382	235.60240	86.96161	1115.76611	-794.88379	-1.16717	579.33746	-517.89966	159.47516	573.73499	-528.00562	57.79796	563.09283	426.38821	213.02959	552.22607	418.33798	
3505	35.040	-122.87881	14.98813	-368.27472	278.92508	118.04372	-405.64789	-56.49788	118.65878	244.16682	287.24710	15.74697	235.50548	88.01829	1114.99170	-795.41644	-0.20239	579.02466	-518.28589	159.58987	572.95941	-527.88129	60.08424	563.24475	425.88303	215.34177	552.63806	417.71835	
3506	35.050	-122.23589	14.93897	-368.21063	281.89658	111.40190	-408.37344	-53.84570	111.33804	243.16682	287.92905	15.70846	235.26602	89.41977	1114.14294	-795.82013	0.73754	578.60852	-518.79315	161.33659	572.98547	-529.44073	62.32687	563.46759	425.34061	217.56874	552.80432	416.78690	
3507	35.060	-121.83036	14.90674	-368.31552	284.50644	104.27228	-411.36877	-50.13826	102.90323	241.86331	288.36472	15.57826	235.01021	91.15759	1113.02649	-796.09186	1.70771	578.08264	-519.43182	161.30017	572.27350	-529.93750	64.52179	563.59668	424.64267	219.96252	553.07904	416.62735	
3508	35.070	-121.46690	14.69033	-368.30927	286.82684	96.51546	-414.01849	-46.04654	94.31648	240.24203	288.63013	15.50407	234.82144	92.94392	1112.05286	-796.78638	2.88288	577.68286	-520.13763	162.92767	572.21301	-530.98755	66.85134	563.65869	423.91907	222.49953	553.18994	415.79318	
3509	35.080	-120.78492	14.30854	-368.53345	289.07584	88.35298	-416.84225	-41.83029	85.41051	237.66580	289.39261	15.50500	234.59558	93.93355	1111.09192	-797.59021	3.78012	577.33344	-520.72760	164.18155	571.86633	-531.98694	68.96457	563.75842	423.12146	224.40279	553.13525	414.08325	
3510	35.090	-120.16784	14.19379	-368.68808	291.14658	80.02135	-419.26517	-38.09330	77.15390	235.36632	290.07864	15.59782	234.53749	96.20541	1110.11902	-798.48334	4.52927	577.01575	-521.46606	165.10150	571.51904	-533.00702	71.67007	564.14026	422.11343	227.08099	553.38147	412.15945	
3511	35.100	-119.85151	14.14009	-368.74701	293.14288	71.52841	-421.14377	-34.64676	68.85540	232.92612	290.78494	15.61466	234.48180	97.64837	1109.38330	-799.10242	5.68981	576.56335	-522.59979	165.66280	570.92377	-533.53510	73.49892	563.86163	421.26038	229.61996	553.55457	410.97635	
3512	35.110	-119.47807	14.00449	-368.84903	295.37881	63.43177	-423.29413	-30.98248	59.99157	231.02963	291.02039	15.55978	234.39091	98.97923	1108.88489	-800.01654	6.74822	576.03088	-523.35492	166.67700	570.78571	-534.99683	75.93690	563.65356	420.32419	231.88326	553.33307	409.66357	
3513	35.120	-119.16145	13.91581	-368.89590	297.79852	55.31714	-424.92261	-27.97879	51.58945	229.62270	291.40353	15.38367	234.09489	100.05122	1108.44434	-801.05994	7.98158	575.52899	-524.34589	168.38617	570.74243	-536.42426	78.14065	563.84863	419.22348	234.31439	553.47101	408.42642	
